HIERARCHY
ROOT pelvis
{
  OFFSET 0 100 0
  CHANNELS 6 Xposition Yposition Zposition Zrotation Xrotation Yrotation
  JOINT pelvis_right_femur
  {
    OFFSET -10.78128 -3.44521 -0.5502486
    CHANNELS 3 Zrotation Xrotation Yrotation
    JOINT right_femur_tibia
    {
      OFFSET -0.8047443 -44.0398 -0.1307829
      CHANNELS 3 Zrotation Xrotation Yrotation
      JOINT right_tibia_foot
      {
        OFFSET 3.006224 -47.83518 -5
        CHANNELS 3 Zrotation Xrotation Yrotation
        End Site
        {
          OFFSET 0 -5 15
        }
      }
    }
  }
  JOINT pelvis_left_femur
  {
    OFFSET 10.78128 -3.44521 -0.5502486
    CHANNELS 3 Zrotation Xrotation Yrotation
    JOINT left_femur_tibia
    {
      OFFSET 0.8047443 -44.0398 -0.1307829
      CHANNELS 3 Zrotation Xrotation Yrotation
      JOINT left_tibia_foot
      {
        OFFSET -4.370144 -48.10324 -4.275266
        CHANNELS 3 Zrotation Xrotation Yrotation
        End Site
        {
          OFFSET 0 -5 15
        }
      }
    }
  }
  JOINT pelvis_spine1
  {
    OFFSET 0 6.468898 -3.129235
    CHANNELS 3 Zrotation Xrotation Yrotation
    JOINT spine1
    {
      OFFSET 0 23.15396 4.99043
      CHANNELS 3 Zrotation Xrotation Yrotation
      JOINT spine2
      {
        OFFSET 0 20.79997 -5.064912
        CHANNELS 3 Zrotation Xrotation Yrotation
        JOINT neck
        {
          OFFSET 0 14.38658 9.616178
          CHANNELS 3 Zrotation Xrotation Yrotation
          End Site
          {
            OFFSET 0 20 0
          }
        }
      }
      JOINT right_manubrium
      {
        OFFSET -5.722621 16.35077 3.967754
        CHANNELS 3 Zrotation Xrotation Yrotation
        JOINT right_clavicle
        {
          OFFSET -13.16364 1.694482 -4.693211
          CHANNELS 3 Zrotation Xrotation Yrotation
          JOINT right_humerus
          {
            OFFSET -28.5034 -0.3100689 -2.792744
            CHANNELS 3 Zrotation Xrotation Yrotation
            JOINT right_radius
            {
              OFFSET -25.15693 0.02248979 -1.271978
              CHANNELS 3 Zrotation Xrotation Yrotation
              End Site
              {
                OFFSET -15 0 0
              }
            }
          }
        }
      }
      JOINT left_manubrium
      {
        OFFSET 5.722621 16.35077 3.967754
        CHANNELS 3 Zrotation Xrotation Yrotation
        JOINT left_clavicle
        {
          OFFSET 13.16364 1.694482 -4.693211
          CHANNELS 3 Zrotation Xrotation Yrotation
          JOINT left_humerus
          {
            OFFSET 29.39168 -1.063119 -2.237045
            CHANNELS 3 Zrotation Xrotation Yrotation
            JOINT left_radius
            {
              OFFSET 24.59957 -0.9528479 0.9047498
              CHANNELS 3 Zrotation Xrotation Yrotation
              End Site
              {
                OFFSET 15 -0 -0
              }
            }
          }
        }
      }
    }
  }
}
MOTION
Frames: 7
Frame Time: 0.0416666666667
0 103.5113 0 1.743687 -2.267602 0.1253408 1.155102 -11.59106 7.256065 -0 37.78922 -0 -5.967982 -17.67667 -4.830002 -7.035117 11.6169 -24.16833 -0 4.811225 -0 -1.101162 -20.91568 22.80734 -1.126051 -2.478174 4.180366 0.1480823 6.70575 -7.22836 1.801477 21.99903 7.96281 5.180201 -21.57691 8.886888 6.298367 -18.28835 9.773983 87.49047 37.4738 -22.63895 -0 0 18.18538 -6.285383 9.19945 2.266335 8.051169 -20.21397 -1.439419 -101.6104 42.17004 28.99667 0 0 -24.1493 -9.92303 19.27892 28.09611
0.07696426 103.0167 0.9872498 1.286237 -1.429641 0.2041008 1.962032 -13.89193 8.714973 -0 39.71806 -0 -5.860923 -17.83719 -5.80885 -6.896847 11.93153 -24.71912 -0 4.507065 -0 -0.9892229 -21.96633 23.75669 -1.112027 -2.39939 4.16151 0.216993 6.777624 -7.281963 1.745756 21.97509 7.997544 5.176699 -21.68874 8.855875 6.257827 -18.2494 9.817533 87.6345 37.51172 -22.74538 -0 0 17.86897 -6.563485 9.350568 2.413771 7.975336 -20.32675 -1.492607 -101.1993 41.89204 28.62331 0 0 -24.23645 -9.651637 19.06733 27.8321
0.1456646 102.4372 2.337304 0.7983968 -0.1208613 0.3996702 2.964755 -18.45973 8.514697 -0 36.90523 -0 -5.752698 -15.40217 -5.652245 -6.68149 12.38346 -24.00699 -0 4.261553 -0 -1.292516 -23.75881 22.97269 -1.058378 -2.068466 3.715277 0.8830711 7.284786 -7.916774 1.377556 21.6809 8.197412 5.084997 -22.59566 8.723717 6.031962 -17.88914 10.16014 89.13413 36.91593 -24.43132 -0 0 15.76887 -7.377793 9.5972 3.120943 7.515727 -21.05324 -2.068372 -98.53563 40.35871 25.93772 0 0 -25.35583 -8.321632 17.51397 26.27457
0.2076562 101.7723 4.014779 0.3133897 1.048731 0.7217533 3.902102 -22.40813 8.486594 -0 34.58658 -0 -5.669306 -13.32416 -5.511362 -6.419599 12.82927 -23.44435 -0 4.071049 -0 -1.789528 -25.17974 22.12603 -1.048684 -1.901071 3.506067 1.20979 7.506995 -8.198966 1.211524 21.55648 8.268121 5.025267 -23.0092 8.648817 5.932505 -17.71422 10.33477 89.73401 36.61349 -25.10494 -0 0 14.79984 -7.78199 9.710174 3.491439 7.259527 -21.34279 -2.341622 -97.32819 39.5697 24.72238 0 0 -25.80715 -7.720971 16.77469 25.54171
0.2785307 100.9916 6.127423 -0.2502409 2.272576 1.173369 4.958341 -26.64611 8.296307 -0 31.54374 -0 -5.611197 -10.87433 -5.11259 -6.066216 13.36315 -22.64384 -0 4.113435 -0 -2.297136 -26.28663 20.89493 -1.054816 -1.699878 3.269304 1.592555 7.74011 -8.499507 1.029622 21.43326 8.325276 4.941267 -23.46619 8.551074 5.826499 -17.51233 10.54549 90.30719 36.25207 -25.74768 -0 0 13.72585 -8.255852 9.824631 3.948155 6.928306 -21.61328 -2.654041 -96.008 38.62503 23.39731 0 0 -26.23072 -7.069019 15.93296 24.7133
0.3667667 100.0881 8.728923 -0.8683754 3.429661 1.752176 6.033515 -30.5939 8.078683 -0 28.35046 -0 -5.613228 -8.443809 -4.6092 -5.629145 13.94242 -21.75169 -0 4.531661 -0 -3.020171 -26.93224 19.33865 -1.078581 -1.535496 3.112014 1.87139 7.885991 -8.679937 0.9046318 21.37479 8.342634 4.866209 -23.77266 8.462771 5.75675 -17.36848 10.70897 90.5823 36.00696 -26.0395 -0 0 12.98349 -8.658959 9.915536 4.330456 6.641527 -21.74143 -2.875329 -95.10559 37.89521 22.50911 0 0 -26.40046 -6.619051 15.33421 24.11745
0.4818072 99.076 11.88713 -1.549986 4.47653 2.444411 7.119766 -34.05547 7.818207 -0 25.08406 -0 -5.708893 -6.118808 -4.011049 -5.102183 14.54595 -20.73256 -0 5.624485 -0 -3.93176 -26.9017 17.45604 -1.117721 -1.367257 2.997448 2.112447 7.995807 -8.795317 0.7991511 21.35716 8.335861 4.787893 -24.01362 8.363836 5.69969 -17.24816 10.8633 90.68058 35.82871 -26.1068 -0 0 12.36091 -9.11183 10.02326 4.731236 6.34071 -21.79209 -3.062321 -94.35057 37.19659 21.79424 0 0 -26.40066 -6.226707 14.81454 23.5861
